# xmcd
#
# Track frame offsets:
#	150
#	15620
#	35632
#	57090
#	70682
#	86792
#	97002
#	114395
#	127477
#
# Disc length: 1919
#
# Revision: 3
# Processed by: cddbd v1.5.1PL0 Copyright (c) Steve Scherf et al.
# Submitted via: DiscPlay 4.0.3
# Normalized: r1:DSETVAR1;r2:TSWAP
#
DISCID=7c077d09
DTITLE=Various Artist - UMD 97107 CD#4 Universal Radio Compilation
DYEAR=1900
DGENRE=
TTITLE0=Jason McCoy - Born agaiin in dixieland
TTITLE1=trisha Yearwood - How Do I Live
TTITLE2=Raybon Bros. - Butterfly Kisses
TTITLE3=Bill Yates - Flowers
TTITLE4=Lee Ann Womack - The Fool
TTITLE5=Jack Ingram - Flutter
TTITLE6=George Strait - Carrying Your Love With Me
TTITLE7=David Lee Murphy - All Lit Up On Love
TTITLE8=The Buffalo Club - Nothin' Less Than Love
EXTD=
EXTT0=
EXTT1=
EXTT2=
EXTT3=
EXTT4=
EXTT5=
EXTT6=
EXTT7=
EXTT8=
PLAYORDER=
